<svg xmlns="http://www.w3.org/2000/svg" version="1.1" xmlns:xlink="http://www.w3.org/1999/xlink" xmlns:svgjs="http://svgjs.dev/svgjs" width="1500" height="352" viewBox="0 0 1500 352"><g transform="matrix(1,0,0,1,-0.9090909090909918,-0.17808126442145067)"><svg viewBox="0 0 396 93" data-background-color="#ffffff" preserveAspectRatio="xMidYMid meet" height="352" width="1500" xmlns="http://www.w3.org/2000/svg" xmlns:xlink="http://www.w3.org/1999/xlink"><g id="tight-bounds" transform="matrix(1,0,0,1,0.2400000000000091,0.04704987952044348)"><svg viewBox="0 0 395.52 92.90590024095911" height="92.90590024095911" width="395.52"><g><svg viewBox="0 0 395.52 92.90590024095911" height="92.90590024095911" width="395.52"><g transform="matrix(1,0,0,1,0,69.67986647536088)"><svg viewBox="0 0 395.52 23.226033765598235" height="23.226033765598235" width="395.52"><g id="textblocktransform"><svg viewBox="0 0 395.52 23.226033765598235" height="23.226033765598235" width="395.52" id="textblock"><g><svg viewBox="0 0 395.52 23.226033765598235" height="23.226033765598235" width="395.52"><g transform="matrix(1,0,0,1,0,0)"><svg width="395.52" viewBox="3 -35.25 612.99 36" height="23.226033765598235" data-palette-color="#222222"><path d="M3-34.55L9.35-34.55 9.35-5.25 20.5-5.25 19.8 0 3 0 3-34.55ZM23.85-34.55L41-34.55 40.35-29.8 30.2-29.8 30.2-19.9 39.05-19.9 39.05-15.2 30.2-15.2 30.2-4.8 41-4.8 41 0 23.85 0 23.85-34.55ZM67.45 0L61 0 59.3-8.1 50.4-8.1 48.75 0 42.4 0 51.1-34.55 58.8-34.55 67.45 0ZM54.85-29.7L51.4-12.9 58.35-12.9 54.85-29.7ZM92.69 0L85.84 0 79.74-13.95 79.14-13.95 76.69-13.95 76.69 0 70.34 0 70.34-34.55 78.49-34.55Q90.99-34.55 90.99-24.4L90.99-24.4Q90.99-21.25 89.59-18.82 88.19-16.4 85.39-15.15L85.39-15.15 92.69 0ZM78.79-18.55Q81.74-18.55 83.07-19.95 84.39-21.35 84.39-24.4L84.39-24.4Q84.39-27.25 83.02-28.58 81.64-29.9 78.49-29.9L78.49-29.9 76.69-29.9 76.69-18.55 78.79-18.55ZM117.49-34.55L117.49 0 109.39 0 100.64-28.3Q101.04-24.7 101.27-21.68 101.49-18.65 101.49-14.5L101.49-14.5 101.49 0 95.89 0 95.89-34.55 103.94-34.55 112.69-6.25Q112.39-8.05 112.12-11.35 111.84-14.65 111.84-18.05L111.84-18.05 111.84-34.55 117.49-34.55ZM123.49-34.55L129.84-34.55 129.84 0 123.49 0 123.49-34.55ZM157.44-34.55L157.44 0 149.34 0 140.59-28.3Q140.99-24.7 141.21-21.68 141.44-18.65 141.44-14.5L141.44-14.5 141.44 0 135.84 0 135.84-34.55 143.89-34.55 152.64-6.25Q152.34-8.05 152.06-11.35 151.78-14.65 151.78-18.05L151.78-18.05 151.78-34.55 157.44-34.55ZM175.68-35.25Q178.53-35.25 180.78-34.23 183.03-33.2 185.03-31.25L185.03-31.25 181.83-27.95Q180.28-29.3 178.93-29.88 177.58-30.45 175.88-30.45L175.88-30.45Q172.58-30.45 170.71-27.5 168.83-24.55 168.83-17.3L168.83-17.3Q168.83-12.2 169.51-9.33 170.18-6.45 171.51-5.3 172.83-4.15 174.98-4.15L174.98-4.15Q177.23-4.15 179.08-5.4L179.08-5.4 179.08-14.75 175.18-14.75 174.53-19.5 185.13-19.5 185.13-2.6Q182.98-1.05 180.36-0.18 177.73 0.7 175.03 0.7L175.03 0.7Q168.58 0.7 165.38-3.68 162.18-8.05 162.18-17.3L162.18-17.3Q162.18-23.3 163.96-27.33 165.73-31.35 168.78-33.3 171.83-35.25 175.68-35.25L175.68-35.25ZM226.23-34.55L228.43 0 222.38 0 221.78-14.6Q221.48-22.6 221.48-26L221.48-26 221.53-28.6 216.78-3.8 210.78-3.8 205.83-28.65Q205.88-27.15 205.88-24.05L205.88-24.05Q205.88-18.8 205.68-14.4L205.68-14.4 205.13 0 199.18 0 201.38-34.55 209.38-34.55 213.88-10.2 218.08-34.55 226.23-34.55ZM255.32 0L248.88 0 247.18-8.1 238.28-8.1 236.63 0 230.28 0 238.97-34.55 246.68-34.55 255.32 0ZM242.72-29.7L239.28-12.9 246.22-12.9 242.72-29.7ZM279.82-34.55L279.82 0 271.72 0 262.97-28.3Q263.37-24.7 263.6-21.68 263.82-18.65 263.82-14.5L263.82-14.5 263.82 0 258.22 0 258.22-34.55 266.27-34.55 275.02-6.25Q274.72-8.05 274.45-11.35 274.17-14.65 274.17-18.05L274.17-18.05 274.17-34.55 279.82-34.55ZM307.77 0L301.32 0 299.62-8.1 290.72-8.1 289.07 0 282.72 0 291.42-34.55 299.12-34.55 307.77 0ZM295.17-29.7L291.72-12.9 298.67-12.9 295.17-29.7ZM322.92-35.25Q325.77-35.25 328.02-34.23 330.27-33.2 332.27-31.25L332.27-31.25 329.07-27.95Q327.52-29.3 326.17-29.88 324.82-30.45 323.12-30.45L323.12-30.45Q319.82-30.45 317.94-27.5 316.07-24.55 316.07-17.3L316.07-17.3Q316.07-12.2 316.74-9.33 317.42-6.45 318.74-5.3 320.07-4.15 322.22-4.15L322.22-4.15Q324.47-4.15 326.32-5.4L326.32-5.4 326.32-14.75 322.42-14.75 321.77-19.5 332.37-19.5 332.37-2.6Q330.22-1.05 327.59-0.18 324.97 0.7 322.27 0.7L322.27 0.7Q315.82 0.7 312.62-3.68 309.42-8.05 309.42-17.3L309.42-17.3Q309.42-23.3 311.19-27.33 312.97-31.35 316.02-33.3 319.07-35.25 322.92-35.25L322.92-35.25ZM337.56-34.55L354.71-34.55 354.06-29.8 343.92-29.8 343.92-19.9 352.76-19.9 352.76-15.2 343.92-15.2 343.92-4.8 354.71-4.8 354.71 0 337.56 0 337.56-34.55ZM385.26-34.55L387.46 0 381.41 0 380.81-14.6Q380.51-22.6 380.51-26L380.51-26 380.56-28.6 375.81-3.8 369.81-3.8 364.86-28.65Q364.91-27.15 364.91-24.05L364.91-24.05Q364.91-18.8 364.71-14.4L364.71-14.4 364.16 0 358.21 0 360.41-34.55 368.41-34.55 372.91-10.2 377.11-34.55 385.26-34.55ZM392.41-34.55L409.56-34.55 408.91-29.8 398.76-29.8 398.76-19.9 407.61-19.9 407.61-15.2 398.76-15.2 398.76-4.8 409.56-4.8 409.56 0 392.41 0 392.41-34.55ZM435.66-34.55L435.66 0 427.56 0 418.81-28.3Q419.21-24.7 419.43-21.68 419.66-18.65 419.66-14.5L419.66-14.5 419.66 0 414.06 0 414.06-34.55 422.11-34.55 430.86-6.25Q430.56-8.05 430.28-11.35 430.01-14.65 430.01-18.05L430.01-18.05 430.01-34.55 435.66-34.55ZM439.05-34.55L460.6-34.55 459.9-29.55 452.8-29.55 452.8 0 446.45 0 446.45-29.55 439.05-29.55 439.05-34.55ZM482.25-35.25Q485.25-35.25 487.55-34.2 489.85-33.15 491.8-31.05L491.8-31.05 488.85-27.65Q487.3-29.05 485.82-29.75 484.35-30.45 482.7-30.45L482.7-30.45Q480.8-30.45 479.7-29.28 478.6-28.1 478.6-26.2L478.6-26.2Q478.6-24.3 479.75-23.1 480.9-21.9 484.25-20.6L484.25-20.6Q488.55-18.85 490.57-16.5 492.6-14.15 492.6-9.85L492.6-9.85Q492.6-6.9 491.25-4.48 489.9-2.05 487.38-0.65 484.85 0.75 481.5 0.75L481.5 0.75Q478.05 0.75 475.5-0.48 472.95-1.7 470.85-3.95L470.85-3.95 474.05-7.45Q475.85-5.85 477.5-5 479.15-4.15 481.1-4.15L481.1-4.15Q483.4-4.15 484.68-5.58 485.95-7 485.95-9.45L485.95-9.45Q485.95-11.6 484.82-12.98 483.7-14.35 480.65-15.5L480.65-15.5Q476.05-17.35 474.02-19.75 472-22.15 472-25.75L472-25.75Q472-28.5 473.32-30.65 474.65-32.8 477-34.02 479.35-35.25 482.25-35.25L482.25-35.25ZM511.6-34.55L518.1-34.55 509-13.15 509 0 502.6 0 502.6-13.1 493.5-34.55 500.25-34.55 505.9-18.3 511.6-34.55ZM529.59-35.25Q532.59-35.25 534.89-34.2 537.19-33.15 539.14-31.05L539.14-31.05 536.19-27.65Q534.64-29.05 533.17-29.75 531.69-30.45 530.04-30.45L530.04-30.45Q528.14-30.45 527.04-29.28 525.94-28.1 525.94-26.2L525.94-26.2Q525.94-24.3 527.09-23.1 528.24-21.9 531.59-20.6L531.59-20.6Q535.89-18.85 537.92-16.5 539.94-14.15 539.94-9.85L539.94-9.85Q539.94-6.9 538.59-4.48 537.24-2.05 534.72-0.65 532.19 0.75 528.84 0.75L528.84 0.75Q525.39 0.75 522.84-0.48 520.29-1.7 518.19-3.95L518.19-3.95 521.39-7.45Q523.19-5.85 524.84-5 526.49-4.15 528.44-4.15L528.44-4.15Q530.74-4.15 532.02-5.58 533.29-7 533.29-9.45L533.29-9.45Q533.29-11.6 532.17-12.98 531.04-14.35 527.99-15.5L527.99-15.5Q523.39-17.35 521.37-19.75 519.34-22.15 519.34-25.75L519.34-25.75Q519.34-28.5 520.67-30.65 521.99-32.8 524.34-34.02 526.69-35.25 529.59-35.25L529.59-35.25ZM541.49-34.55L563.04-34.55 562.34-29.55 555.24-29.55 555.24 0 548.89 0 548.89-29.55 541.49-29.55 541.49-34.55ZM566.09-34.55L583.24-34.55 582.59-29.8 572.44-29.8 572.44-19.9 581.29-19.9 581.29-15.2 572.44-15.2 572.44-4.8 583.24-4.8 583.24 0 566.09 0 566.09-34.55ZM613.79-34.55L615.99 0 609.94 0 609.34-14.6Q609.04-22.6 609.04-26L609.04-26 609.09-28.6 604.34-3.8 598.34-3.8 593.39-28.65Q593.44-27.15 593.44-24.05L593.44-24.05Q593.44-18.8 593.24-14.4L593.24-14.4 592.69 0 586.74 0 588.94-34.55 596.94-34.55 601.44-10.2 605.64-34.55 613.79-34.55Z" opacity="1" transform="matrix(1,0,0,1,0,0)" fill="#222222" class="wordmark-text-0" data-fill-palette-color="primary" id="text-0"></path></svg></g></svg></g></svg></g></svg></g><g transform="matrix(1,0,0,1,174.1877531685833,0)"><svg viewBox="0 0 47.14449366283337 64.19675732811352" height="64.19675732811352" width="47.14449366283337"><g><svg xmlns="http://www.w3.org/2000/svg" xmlns:xlink="http://www.w3.org/1999/xlink" version="1.1" x="0" y="0" viewBox="9 0.5 47 64" enable-background="new 0 0 65 65" xml:space="preserve" height="64.19675732811352" width="47.14449366283337" class="icon-icon-0" data-fill-palette-color="accent" id="icon-0"><g fill="#000000" data-fill-palette-color="accent"><path d="M32.5 28.8C34.9 28.8 37.3 27.1 39.2 24 40.2 22.4 40.9 20.5 41.3 18.6 41.6 17.4 41.7 16.2 41.7 15 41.7 14.5 41.7 14.1 41.6 13.6V13.5C41.2 13.7 40.8 13.8 40.4 14 40.1 14.1 39.7 14.3 39.4 14.4 38.9 14.6 38.5 14.7 38 14.9L37.1 15.2C36.6 15.4 36.2 15.5 35.7 15.6 35.4 15.7 35.2 15.8 34.9 15.8 34.2 16 33.5 16.1 32.8 16.3H32L30.8 16C30.7 16 30.5 15.9 30.4 15.9 30.1 15.8 29.8 15.7 29.5 15.7 29.3 15.7 29.2 15.6 29 15.6L28.1 15.3C27.9 15.2 27.8 15.2 27.6 15.1 27.5 15.1 27.5 15.1 27.4 15L28.2 19.6C28.2 19.8 28.2 20.1 28 20.2 27.9 20.4 27.6 20.5 27.4 20.5H24.2C24.6 21.7 25.1 22.9 25.8 23.9 27.7 27.1 30.1 28.8 32.5 28.8" fill="#000000" data-fill-palette-color="accent"></path><polygon points="23.4,14 23.4,14 23.4,14  " fill="#000000" data-fill-palette-color="accent"></polygon><path d="M23.2 11.7C23.2 11.6 23.3 11.6 23.3 11.6 23.3 11.5 23.4 11.5 23.4 11.4L23.7 11.1C23.8 11.1 23.8 11 23.9 11L24 10.9V8.1C23.4 9 23.1 10 23 11 23 11.2 23 11.5 23.2 11.7" fill="#000000" data-fill-palette-color="accent"></path><path d="M25.6 12C25.5 12 25.4 11.9 25.3 11.9S25.1 11.9 25 12C24.7 12.1 24.5 12.4 24.5 12.7S24.6 13.1 24.7 13.3C24.8 13.4 24.9 13.4 25 13.5 25.3 13.6 25.6 13.6 25.8 13.3 26 13.1 26 13 26 12.7S25.9 12.1 25.6 12" fill="#000000" data-fill-palette-color="accent"></path><path d="M23.8 6.3L24.4 6.5C24.5 6.4 24.6 6.4 24.7 6.3L30.3 4.1C30.4 4 30.5 3.8 30.6 3.7 30.6 3.7 30.7 3.7 30.7 3.6 30.8 3.5 30.9 3.4 31.1 3.3 31.1 3.3 31.2 3.3 31.2 3.2 31.3 3.1 31.5 3 31.7 3H31.8C32 3 32.2 2.9 32.5 2.9 33.8 2.9 34.8 3.7 34.8 4.7S33.8 6.5 32.5 6.5H32L28.6 7.8 32.5 8.9 39.4 6.9 46.9 4.7 32.5 0.5 18.1 4.6z" fill="#000000" data-fill-palette-color="accent"></path><path d="M25.8 15S25.7 15 25.8 15C25.6 15 25.5 15.1 25.3 15.1S25 15.1 24.8 15L24 19.1H26.5z" fill="#000000" data-fill-palette-color="accent"></path><path d="M31.8 4.6S31.9 4.6 31.9 4.7C32 4.7 32 4.8 32.1 4.8S32.4 4.9 32.5 4.9C33 4.9 33.2 4.7 33.3 4.6 33.3 4.6 33 4.4 32.5 4.4H31.8C31.9 4.6 31.8 4.6 31.8 4.6" fill="#000000" data-fill-palette-color="accent"></path><path d="M43.1 13.1V13.9C43.1 14.3 43.2 14.7 43.2 15.1 43.2 15.7 43.2 16.3 43.1 16.9V17.4C43.4 17.1 43.6 16.6 43.8 16.1 44.1 15.4 44.1 14.6 44 14 43.9 13.5 43.7 13.2 43.4 13.1z" fill="#000000" data-fill-palette-color="accent"></path><path d="M46.6 33.1C47.6 32.9 48.5 32.8 49.5 32.7 49.4 32.6 49.2 32.6 49.1 32.5L47.7 32z" fill="#000000" data-fill-palette-color="accent"></path><path d="M32.5 10.3H32.2L26.6 8.7V10.9L26.7 11C26.8 11 26.8 11.1 26.8 11.1L27.1 11.4C27.1 11.5 27.2 11.5 27.2 11.6 27.3 11.7 27.3 11.9 27.4 12 27.4 12.1 27.4 12.1 27.5 12.2 27.6 12.4 27.6 12.6 27.6 12.8V13.3C27.6 13.4 27.6 13.5 27.5 13.5 27.7 13.6 27.8 13.6 28 13.7S28.4 13.8 28.5 13.9L29.4 14.2C29.6 14.2 29.7 14.3 29.9 14.3 30.2 14.4 30.5 14.5 30.8 14.5 30.9 14.5 31.1 14.6 31.2 14.6L32.4 14.9H32.7C35.3 14.4 38.2 13.5 41.5 12 41.6 12 41.7 11.9 41.8 11.8 42 11.6 42.2 11.3 42.1 10.9 42 9.8 41.6 8.8 41.1 7.8L32.9 10.2C32.7 10.3 32.6 10.3 32.5 10.3" fill="#000000" data-fill-palette-color="accent"></path><path d="M54.5 55.6H54.3C54.2 55.6 54.1 55.6 54 55.5 53.9 55.5 53.8 55.4 53.7 55.4S53.5 55.3 53.4 55.2 53.2 55 53.1 55C53 54.9 52.9 54.9 52.9 54.8 52.8 54.7 52.7 54.5 52.6 54.4 52.6 54.3 52.5 54.3 52.5 54.2L52.2 53.6V53.5C52.1 53.3 52 53 51.9 52.7V52.6C51.8 52.3 51.8 52 51.7 51.7V51.6C51.7 51.3 51.6 50.9 51.6 50.5 51.6 47.6 52.9 45.4 54.7 45.4H55.1C55.2 45.4 55.3 45.4 55.4 45.5L55.8 38.9 54.9 39 54 39.1 33.2 41.5V64.3L54.3 62 54.6 55.6z" fill="#000000" data-fill-palette-color="accent"></path><path d="M21.9 16.9C21.8 16.3 21.8 15.7 21.8 15.1 21.8 14.7 21.8 14.3 21.9 13.9V13.1H21.6C21.3 13.2 21.1 13.5 21 14 20.9 14.6 20.9 15.3 21.2 16.1 21.4 16.6 21.6 17.1 21.9 17.4z" fill="#000000" data-fill-palette-color="accent"></path><path d="M31.5 41.7L24.1 40.8 10.7 39.2 10.2 39.1 9 39 9.4 45.7C9.6 45.6 9.7 45.5 9.9 45.5H10C10.2 45.5 10.3 45.4 10.5 45.4 12.2 45.4 13.6 47.6 13.6 50.5S12.3 55.6 10.5 55.6C10.3 55.6 10.1 55.6 9.9 55.5L10.3 62 31.5 64.5z" fill="#000000" data-fill-palette-color="accent"></path><path d="M18.4 33.1H18.5L17.9 32.6 17.2 31.9 15.8 32.4C15.6 32.5 15.5 32.5 15.4 32.6 15.9 32.7 16.4 32.8 16.8 32.8 17.3 33 17.9 33 18.4 33.1" fill="#000000" data-fill-palette-color="accent"></path><path d="M14.2 33.4C13.7 33.8 13.3 34.2 12.9 34.8 13.3 34.8 13.8 34.9 14.2 34.9z" fill="#000000" data-fill-palette-color="accent"></path><path d="M12 50.6C12 48.4 11.1 47.1 10.5 47.1 10.2 47.1 9.7 47.5 9.4 48.2 9.2 48.9 9 49.7 9 50.6 9 51.7 9.3 52.8 9.7 53.5 10 53.9 10.3 54.1 10.5 54.1 11.1 54.1 12 52.7 12 50.6" fill="#000000" data-fill-palette-color="accent"></path><path d="M26 27.6L26.7 27.9 27.7 28.4 27.5 28.2C27.4 28.1 27.3 28 27.1 27.9L26.6 27.4C26.5 27.3 26.4 27.2 26.3 27 26.1 27 26 26.9 26 26.9z" fill="#000000" data-fill-palette-color="accent"></path><path d="M32.5 31L34.1 30.2C34 30.2 33.9 30.2 33.8 30.3 33.7 30.3 33.6 30.3 33.5 30.4 33.2 30.4 32.9 30.5 32.6 30.5H32.4C32.1 30.5 31.8 30.5 31.5 30.4 31.4 30.4 31.3 30.4 31.2 30.3 31.1 30.3 31 30.3 30.9 30.2z" fill="#000000" data-fill-palette-color="accent"></path><path d="M38.3 28L39 27.6V26.8C39 26.9 38.9 27 38.9 27 38.8 27.1 38.7 27.3 38.5 27.4L38 27.9C37.9 28 37.8 28.1 37.6 28.2L37.4 28.4z" fill="#000000" data-fill-palette-color="accent"></path><path d="M54.5 47.1C53.9 47.1 53 48.5 53 50.6 53 52.8 53.9 54.1 54.5 54.1 54.7 54.1 54.9 54 55 53.8 55.5 53.4 56 52.2 56 50.5 56 49.4 55.7 48.3 55.2 47.6 55 47.3 54.7 47.1 54.5 47.1" fill="#000000" data-fill-palette-color="accent"></path><path d="M39.1 35.3C39.2 35.3 39.2 35.2 39.3 35.2 39.9 34.9 40.6 34.7 41.3 34.5 41.4 34.4 41.6 34.4 41.8 34.3 42.4 34.1 43.1 33.9 43.8 33.7L44.4 33.1 46.3 31.3 42 29.6 38.1 35.7C38.4 35.6 38.8 35.4 39.1 35.3" fill="#000000" data-fill-palette-color="accent"></path><path d="M21.2 33.7L21.4 33.9C21.6 33.9 21.7 34 21.9 34.1 22.2 34.2 22.6 34.3 22.9 34.4 23.1 34.5 23.3 34.5 23.5 34.6L24.4 34.9C24.6 35 24.8 35.1 25 35.1 25.3 35.2 25.5 35.3 25.7 35.4S26.1 35.6 26.2 35.6L26.8 35.9C26.9 35.9 26.9 36 27 36L22.9 29.6 18.6 31.3z" fill="#000000" data-fill-palette-color="accent"></path><path d="M17.3 35.3C17.9 35.4 18.4 35.5 18.9 35.6H19C19.6 35.7 20.1 35.8 20.7 35.9 20.8 35.9 21 36 21.1 36L22.3 36.3C22.5 36.3 22.6 36.4 22.8 36.4 23.1 36.5 23.5 36.6 23.8 36.7 24 36.7 24.1 36.8 24.3 36.8L25.2 37.1C25.3 37.1 25.5 37.2 25.6 37.2L26.5 37.5C26.6 37.5 26.7 37.6 26.8 37.6H26.9S26.8 37.6 26.8 37.5C26.5 37.3 26.2 37.2 25.9 37 25.8 36.9 25.6 36.9 25.5 36.8 25.2 36.7 24.9 36.5 24.6 36.4 24.4 36.3 24.3 36.3 24.1 36.2 23.8 36.1 23.4 35.9 23.1 35.8 22.9 35.7 22.8 35.7 22.6 35.6 22.1 35.4 21.5 35.3 20.9 35.1 19.3 34.7 17.6 34.3 15.8 34.1V35C16.1 35 16.4 35.1 16.7 35.1 16.9 35.2 17.1 35.2 17.3 35.3" fill="#000000" data-fill-palette-color="accent"></path><path d="M27.8 39.7C27.6 39.6 27.4 39.5 27.1 39.4 26.9 39.3 26.8 39.3 26.6 39.2S26.1 39 25.9 38.9 25.5 38.8 25.3 38.7 24.8 38.5 24.5 38.5C24.3 38.4 24.1 38.4 23.9 38.3 23.6 38.2 23.3 38.1 23.1 38.1 22.9 38 22.6 38 22.4 37.9 22.1 37.8 21.8 37.7 21.5 37.7 21.2 37.6 21 37.6 20.7 37.5S20 37.4 19.7 37.3 19.2 37.2 18.9 37.1C18.5 37 18.1 37 17.7 36.9 17.5 36.9 17.2 36.8 17 36.8L14.9 36.5 11.6 36.2V37.8L28.1 39.7z" fill="#000000" data-fill-palette-color="accent"></path><polygon points="28.1,34.7 30.8,31.9 28.1,30.5 25,28.9 24.5,29.1  " fill="#000000" data-fill-palette-color="accent"></polygon><path d="M50.4 34.9C50.6 34.9 50.8 34.9 51 34.8 51.3 34.8 51.5 34.8 51.8 34.7H52.1C51.6 34.1 51 33.5 50.3 33.1 50.3 33.2 50.4 33.3 50.4 33.4z" fill="#000000" data-fill-palette-color="accent"></path><polygon points="36.8,30.5 34.2,31.9 36.9,34.7 40.5,29.1 40,28.9  " fill="#000000" data-fill-palette-color="accent"></polygon><path d="M32.2 32.7L28.9 36 30.1 37.9C30.2 38 30.3 38 30.4 38.1S30.7 38.3 30.8 38.4 31 38.6 31.1 38.6L31.4 38.9C31.5 39 31.6 39 31.6 39.1L31.9 39.4 32.1 39.6 32.3 39.8 32.4 39.9 32.5 39.8 32.8 39.5 33 39.3C33.1 39.2 33.2 39.1 33.4 39 33.5 38.9 33.6 38.8 33.7 38.8 33.8 38.7 34 38.6 34.2 38.4L34.5 38.1C34.7 38 34.9 37.8 35.1 37.7 35.2 37.6 35.3 37.6 35.4 37.5L36.3 36.1 35.1 34.9 33 32.7z" fill="#000000" data-fill-palette-color="accent"></path><path d="M44.3 35.2L42.2 35.8C42 35.9 41.8 35.9 41.6 36 41.1 36.2 40.7 36.3 40.2 36.5L39.6 36.8C39.1 37 38.7 37.2 38.3 37.4 38.2 37.5 38 37.5 37.9 37.6H37.8 37.9C38 37.6 38.2 37.5 38.3 37.5 38.6 37.4 38.8 37.3 39.1 37.2 39.3 37.1 39.4 37.1 39.6 37 39.9 36.9 40.2 36.8 40.4 36.7S40.7 36.6 40.9 36.5L41.8 36.2C42 36.2 42.2 36.1 42.3 36.1 42.7 36 43 35.9 43.4 35.8 43.5 35.8 43.7 35.7 43.8 35.7 44.3 35.6 44.9 35.5 45.5 35.4H45.7C46.2 35.3 46.7 35.2 47.3 35.1 47.5 35.1 47.7 35 47.9 35 48.2 35 48.5 34.9 48.8 34.9V34.1C47.3 34.5 45.8 34.8 44.3 35.2 44.3 35.1 44.3 35.1 44.3 35.2" fill="#000000" data-fill-palette-color="accent"></path><path d="M46.9 36.9C46.5 37 46.1 37 45.7 37.1 45.4 37.2 45.2 37.2 44.9 37.3 44.5 37.4 44.2 37.4 43.9 37.5S43.4 37.6 43.1 37.7 42.5 37.9 42.2 37.9C42 38 41.7 38 41.5 38.1 41.2 38.2 40.9 38.3 40.7 38.3 40.5 38.4 40.3 38.4 40.1 38.5 39.8 38.6 39.6 38.7 39.3 38.7 39.1 38.8 38.9 38.8 38.7 38.9S38.2 39.1 38 39.2 37.7 39.3 37.5 39.4 37 39.6 36.8 39.7C36.7 39.7 36.6 39.8 36.6 39.8L53 37.8V36.2C52.7 36.2 52.4 36.2 52.1 36.3H51.6C51 36.4 50.4 36.4 49.8 36.5L47.7 36.8C47.4 36.8 47.2 36.8 46.9 36.9" fill="#000000" data-fill-palette-color="accent"></path></g></svg></g></svg></g><g></g></svg></g><defs></defs></svg><rect width="395.52" height="92.90590024095911" fill="none" stroke="none" visibility="hidden"></rect></g></svg></g></svg>